<svg version="1.1" id="Layer_1" xmlns="http://www.w3.org/2000/svg" xmlns:xlink="http://www.w3.org/1999/xlink" x="0px" y="0px"
	 width="100%" viewBox="0 0 896 896" enable-background="new 0 0 896 896" xml:space="preserve">
<path fill="#000000" opacity="1.000000" stroke="none" 
	d="
M543.999878,680.333679 
	C500.335114,680.341919 457.170197,680.283142 414.005707,680.392395 
	C397.981598,680.432922 383.933960,676.029907 372.720856,663.994690 
	C365.807312,656.574341 362.057312,647.701416 359.792389,638.033997 
	C356.276794,623.028320 357.385925,625.533569 343.528931,625.405029 
	C330.697266,625.285950 317.856232,625.657410 305.032349,625.318909 
	C274.309784,624.507935 250.674698,611.151062 234.784363,584.641907 
	C218.461441,557.411072 221.048645,515.000610 244.297379,490.339264 
	C258.776733,474.980133 275.716858,465.372894 297.053284,463.459900 
	C304.716431,462.772797 312.322388,462.722046 319.950897,462.710693 
	C372.781769,462.631989 425.612823,462.664734 478.443817,462.667206 
	C485.322754,462.667542 485.342407,462.682190 485.346558,469.480011 
	C485.358124,488.479156 485.244507,507.479431 485.440369,526.476562 
	C485.480957,530.415161 484.376709,532.275146 480.494507,533.633362 
	C467.002472,538.353455 457.564575,551.736084 457.361023,565.584961 
	C457.144531,580.314087 469.658051,596.110046 484.196899,599.478333 
	C506.096771,604.552063 526.149292,587.670715 526.589172,565.580078 
	C526.871338,551.410950 517.163757,538.286316 503.260956,533.462585 
	C499.910339,532.300049 498.567383,530.765015 498.597015,527.116699 
	C498.757996,507.285583 498.737061,487.451965 498.605255,467.620392 
	C498.581390,464.028656 499.584503,462.604218 503.389435,462.612671 
	C547.220581,462.710052 591.058289,462.243225 634.880493,462.874939 
	C653.582031,463.144531 665.400818,477.594177 660.722961,497.242462 
	C651.880127,534.384583 641.639465,571.193726 631.985413,608.142761 
	C629.091431,619.218994 626.116760,630.275391 623.353516,641.384277 
	C617.627747,664.403137 597.714172,680.193359 573.997559,680.321533 
	C564.165283,680.374634 554.332520,680.332336 543.999878,680.333679 
M337.834412,554.312561 
	C334.292175,540.687927 330.726135,527.069458 327.227478,513.433655 
	C326.512085,510.645569 325.136871,509.223145 322.018036,509.325867 
	C314.558868,509.571533 307.104675,509.168030 299.652924,510.353394 
	C284.921967,512.696716 272.116486,527.303040 271.214111,541.535400 
	C269.913239,562.052185 286.538605,575.671204 299.014496,577.667664 
	C312.734344,579.863159 326.551819,578.199463 340.318298,578.604919 
	C343.317902,578.693237 343.888702,577.047852 343.122742,574.312561 
	C341.337555,567.937439 339.758392,561.504639 337.834412,554.312561 
M578.320435,635.255615 
	C573.853699,635.692444 569.390564,636.173828 564.918091,636.540527 
	C563.466064,636.659607 562.278992,637.009888 561.758667,638.475769 
	C561.315247,639.725037 561.918945,640.753906 562.663818,641.686279 
	C566.456360,646.433838 576.057007,647.181702 580.427368,643.081848 
	C583.831848,639.888123 583.438049,637.547119 578.320435,635.255615 
z"/>
<path fill="#000000" opacity="1.000000" stroke="none" 
	d="
M669.472290,309.614868 
	C682.051941,338.250641 680.117859,365.301361 661.697083,390.381256 
	C646.151306,411.546875 624.603516,421.340698 598.503357,421.371307 
	C567.346069,421.407806 536.188110,421.282318 505.032227,421.490234 
	C499.971161,421.523987 498.433228,419.993530 498.557068,414.960602 
	C498.876709,401.972382 498.804443,388.968628 498.576202,375.976562 
	C498.511963,372.321747 499.811462,370.755920 503.158783,369.615021 
	C517.459900,364.740753 525.119995,354.054779 526.414490,339.533295 
	C527.911865,322.734680 515.405273,306.640198 498.434662,303.421600 
	C478.206970,299.585236 459.988831,314.389069 457.621185,334.159393 
	C456.037170,347.386047 463.923401,363.415741 480.693359,369.519775 
	C483.959473,370.708588 485.492218,372.076294 485.433716,375.795746 
	C485.221527,389.288239 485.231049,402.788025 485.431702,416.280945 
	C485.490417,420.228790 484.181091,421.462280 480.271545,421.450867 
	C440.783752,421.335999 401.286682,421.879791 361.810516,421.190674 
	C334.423279,420.712555 311.236298,398.761658 307.401642,371.488708 
	C302.923004,339.635345 324.627106,312.203857 352.282898,306.248322 
	C360.158905,304.552246 368.101410,304.212402 375.950439,305.934113 
	C379.255524,306.659088 380.298370,306.081268 380.881592,302.745270 
	C383.139038,289.832306 387.845612,277.724091 395.056335,266.839691 
	C411.163910,242.525848 433.510651,227.461304 462.517181,222.604523 
	C488.918793,218.183868 513.329407,223.497803 535.674500,237.877747 
	C547.971252,245.791122 557.794678,256.412689 565.365112,268.959717 
	C567.174805,271.959167 568.639282,272.193848 572.065369,271.134247 
	C600.156555,262.446381 626.347168,265.199768 649.953064,284.300140 
	C658.487061,291.205261 664.434509,299.737244 669.472290,309.614868 
z"/>
<path fill="#000000" opacity="1.000000" stroke="none" 
	d="
M504.091309,318.696289 
	C513.709534,324.109009 514.936584,334.777405 512.567078,344.881744 
	C510.583893,353.338531 501.400085,359.365784 492.086517,359.365997 
	C482.676605,359.366211 473.452057,353.115204 471.395691,344.453125 
	C469.321045,335.714142 469.926636,327.093719 477.237488,320.619049 
	C484.284424,314.378082 495.008972,313.733307 504.091309,318.696289 
z"/>
</svg>